<svg xmlns="http://www.w3.org/2000/svg" xmlns:xlink="http://www.w3.org/1999/xlink" width="110pt" height="110pt" viewBox="0 0 110 110"><g id="graph0" class="graph" transform="scale(1 1) rotate(0) translate(4 106)"><title>dependency-cruiser output</title><polygon fill="#fff" stroke="transparent" points="-4 4 -4 -106 106 -106 106 4 -4 4"/><g id="clust1" class="cluster"><title>cluster_src</title><path fill="#fff" stroke="#000" stroke-width="2" d="M20,-8C20,-8 82,-8 82,-8 88,-8 94,-14 94,-20 94,-20 94,-82 94,-82 94,-88 88,-94 82,-94 82,-94 20,-94 20,-94 14,-94 8,-88 8,-82 8,-82 8,-20 8,-20 8,-14 14,-8 20,-8"/><text x="51" y="-82.8" font-family="Helvetica,sans-Serif" font-size="9" font-weight="bold" text-anchor="middle">src</text></g><g id="clust2" class="cluster"><title>cluster_src/pages</title><path fill="#fff" stroke="#000" stroke-width="2" d="M28,-16C28,-16 74,-16 74,-16 80,-16 86,-22 86,-28 86,-28 86,-56 86,-56 86,-62 80,-68 74,-68 74,-68 28,-68 28,-68 22,-68 16,-62 16,-56 16,-56 16,-28 16,-28 16,-22 22,-16 28,-16"/><text x="51" y="-56.8" font-family="Helvetica,sans-Serif" font-size="9" font-weight="bold" text-anchor="middle">pages</text></g><g id="node1" class="node"><title>src/pages/_error.js</title><g id="a_node1"><a xlink:href="src/pages/_error.js" xlink:title="_error.js"><path fill="#cfc" stroke="#000" d="M72,-42C72,-42 30,-42 30,-42 27,-42 24,-39 24,-36 24,-36 24,-30 24,-30 24,-27 27,-24 30,-24 30,-24 72,-24 72,-24 75,-24 78,-27 78,-30 78,-30 78,-36 78,-36 78,-39 75,-42 72,-42"/><text x="51" y="-30.8" font-family="Helvetica,sans-Serif" font-size="9" text-anchor="middle">_error.js</text></a></g></g></g></svg>